<?xml version="1.0" encoding="UTF-8" standalone="no"?>
<!-- Created with Inkscape (http://www.inkscape.org/) -->

<svg
   xmlns:dc="http://purl.org/dc/elements/1.1/"
   xmlns:cc="http://creativecommons.org/ns#"
   xmlns:rdf="http://www.w3.org/1999/02/22-rdf-syntax-ns#"
   xmlns:svg="http://www.w3.org/2000/svg"
   xmlns="http://www.w3.org/2000/svg"
   xmlns:sodipodi="http://sodipodi.sourceforge.net/DTD/sodipodi-0.dtd"
   xmlns:inkscape="http://www.inkscape.org/namespaces/inkscape"
   width="744.09448819"
   height="1052.3622047"
   id="svg2"
   version="1.1"
   inkscape:version="0.48.3.1 r9886"
   sodipodi:docname="tofu.svg">
  <defs
     id="defs4" />
  <sodipodi:namedview
     id="base"
     pagecolor="#ffffff"
     bordercolor="#666666"
     borderopacity="1.0"
     inkscape:pageopacity="0.0"
     inkscape:pageshadow="2"
     inkscape:zoom="0.98994949"
     inkscape:cx="126.68591"
     inkscape:cy="847.71138"
     inkscape:document-units="px"
     inkscape:current-layer="layer1"
     showgrid="false"
     inkscape:window-width="753"
     inkscape:window-height="631"
     inkscape:window-x="515"
     inkscape:window-y="153"
     inkscape:window-maximized="0"
     inkscape:snap-bbox="true" />
  <metadata
     id="metadata7">
    <rdf:RDF>
      <cc:Work
         rdf:about="">
        <dc:format>image/svg+xml</dc:format>
        <dc:type
           rdf:resource="http://purl.org/dc/dcmitype/StillImage" />
        <dc:title></dc:title>
      </cc:Work>
    </rdf:RDF>
  </metadata>
  <g
     inkscape:label="Layer 1"
     inkscape:groupmode="layer"
     id="layer1">
    <path
       sodipodi:type="arc"
       style="fill:#ff0000;fill-rule:evenodd;stroke:#000000;stroke-width:1px;stroke-linecap:butt;stroke-linejoin:miter;stroke-opacity:1"
       id="path2987"
       sodipodi:cx="111.11678"
       sodipodi:cy="318.99142"
       sodipodi:rx="19.192898"
       sodipodi:ry="19.192898"
       d="m 130.30968,318.99142 a 19.192898,19.192898 0 1 1 -38.385795,0 19.192898,19.192898 0 1 1 38.385795,0 z"
       transform="translate(-1.4238853,13.67786)" />
    <path
       sodipodi:type="arc"
       style="fill:#ff0000;fill-rule:evenodd;stroke:#000000;stroke-width:1px;stroke-linecap:butt;stroke-linejoin:miter;stroke-opacity:1"
       id="path2987-1"
       sodipodi:cx="111.11678"
       sodipodi:cy="318.99142"
       sodipodi:rx="19.192898"
       sodipodi:ry="19.192898"
       d="m 130.30968,318.99142 a 19.192898,19.192898 0 1 1 -38.385795,0 19.192898,19.192898 0 1 1 38.385795,0 z"
       transform="translate(118.57611,13.67786)" />
    <path
       sodipodi:type="arc"
       style="fill:#ff0000;fill-rule:evenodd;stroke:#000000;stroke-width:1px;stroke-linecap:butt;stroke-linejoin:miter;stroke-opacity:1"
       id="path2987-6"
       sodipodi:cx="111.11678"
       sodipodi:cy="318.99142"
       sodipodi:rx="19.192898"
       sodipodi:ry="19.192898"
       d="m 130.30968,318.99142 a 19.192898,19.192898 0 1 1 -38.385795,0 19.192898,19.192898 0 1 1 38.385795,0 z"
       transform="translate(58.576115,-26.32214)" />
    <path
       sodipodi:type="arc"
       style="fill:#ff0000;fill-rule:evenodd;stroke:#000000;stroke-width:1px;stroke-linecap:butt;stroke-linejoin:miter;stroke-opacity:1"
       id="path2987-1-3"
       sodipodi:cx="111.11678"
       sodipodi:cy="318.99142"
       sodipodi:rx="19.192898"
       sodipodi:ry="19.192898"
       d="m 130.30968,318.99142 a 19.192898,19.192898 0 1 1 -38.385795,0 19.192898,19.192898 0 1 1 38.385795,0 z"
       transform="translate(178.57611,-26.32214)" />
    <path
       sodipodi:type="arc"
       style="fill:#ff0000;fill-rule:evenodd;stroke:#000000;stroke-width:1px;stroke-linecap:butt;stroke-linejoin:miter;stroke-opacity:1"
       id="path2987-6-6"
       sodipodi:cx="111.11678"
       sodipodi:cy="318.99142"
       sodipodi:rx="19.192898"
       sodipodi:ry="19.192898"
       d="m 130.30968,318.99142 a 19.192898,19.192898 0 1 1 -38.385795,0 19.192898,19.192898 0 1 1 38.385795,0 z"
       transform="translate(118.57611,-66.32214)" />
    <path
       sodipodi:type="arc"
       style="fill:#ff0000;fill-rule:evenodd;stroke:#000000;stroke-width:1px;stroke-linecap:butt;stroke-linejoin:miter;stroke-opacity:1"
       id="path2987-6-6-5"
       sodipodi:cx="111.11678"
       sodipodi:cy="318.99142"
       sodipodi:rx="19.192898"
       sodipodi:ry="19.192898"
       d="m 130.30968,318.99142 a 19.192898,19.192898 0 1 1 -38.385795,0 19.192898,19.192898 0 1 1 38.385795,0 z"
       transform="translate(238.57611,-66.32214)" />
    <path
       sodipodi:type="arc"
       style="fill:#ff0000;fill-rule:evenodd;stroke:#000000;stroke-width:1px;stroke-linecap:butt;stroke-linejoin:miter;stroke-opacity:1"
       id="path2987-9"
       sodipodi:cx="111.11678"
       sodipodi:cy="318.99142"
       sodipodi:rx="19.192898"
       sodipodi:ry="19.192898"
       d="m 130.30968,318.99142 a 19.192898,19.192898 0 1 1 -38.385795,0 19.192898,19.192898 0 1 1 38.385795,0 z"
       transform="translate(1.2183047,-122.63455)" />
    <path
       sodipodi:type="arc"
       style="fill:#ff0000;fill-rule:evenodd;stroke:#000000;stroke-width:1px;stroke-linecap:butt;stroke-linejoin:miter;stroke-opacity:1"
       id="path2987-1-5"
       sodipodi:cx="111.11678"
       sodipodi:cy="318.99142"
       sodipodi:rx="19.192898"
       sodipodi:ry="19.192898"
       d="m 130.30968,318.99142 a 19.192898,19.192898 0 1 1 -38.385795,0 19.192898,19.192898 0 1 1 38.385795,0 z"
       transform="translate(121.2183,-122.63455)" />
    <path
       sodipodi:type="arc"
       style="fill:#ff0000;fill-rule:evenodd;stroke:#000000;stroke-width:1px;stroke-linecap:butt;stroke-linejoin:miter;stroke-opacity:1"
       id="path2987-6-9"
       sodipodi:cx="111.11678"
       sodipodi:cy="318.99142"
       sodipodi:rx="19.192898"
       sodipodi:ry="19.192898"
       d="m 130.30968,318.99142 a 19.192898,19.192898 0 1 1 -38.385795,0 19.192898,19.192898 0 1 1 38.385795,0 z"
       transform="translate(61.218303,-162.63455)" />
    <path
       sodipodi:type="arc"
       style="fill:#ff0000;fill-rule:evenodd;stroke:#000000;stroke-width:1px;stroke-linecap:butt;stroke-linejoin:miter;stroke-opacity:1"
       id="path2987-1-3-7"
       sodipodi:cx="111.11678"
       sodipodi:cy="318.99142"
       sodipodi:rx="19.192898"
       sodipodi:ry="19.192898"
       d="m 130.30968,318.99142 a 19.192898,19.192898 0 1 1 -38.385795,0 19.192898,19.192898 0 1 1 38.385795,0 z"
       transform="translate(181.2183,-162.63455)" />
    <path
       sodipodi:type="arc"
       style="fill:#ff0000;fill-rule:evenodd;stroke:#000000;stroke-width:1px;stroke-linecap:butt;stroke-linejoin:miter;stroke-opacity:1"
       id="path2987-6-6-0"
       sodipodi:cx="111.11678"
       sodipodi:cy="318.99142"
       sodipodi:rx="19.192898"
       sodipodi:ry="19.192898"
       d="m 130.30968,318.99142 a 19.192898,19.192898 0 1 1 -38.385795,0 19.192898,19.192898 0 1 1 38.385795,0 z"
       transform="translate(121.2183,-202.63455)" />
    <path
       sodipodi:type="arc"
       style="fill:#ff0000;fill-rule:evenodd;stroke:#000000;stroke-width:1px;stroke-linecap:butt;stroke-linejoin:miter;stroke-opacity:1"
       id="path2987-6-6-5-2"
       sodipodi:cx="111.11678"
       sodipodi:cy="318.99142"
       sodipodi:rx="19.192898"
       sodipodi:ry="19.192898"
       d="m 130.30968,318.99142 a 19.192898,19.192898 0 1 1 -38.385795,0 19.192898,19.192898 0 1 1 38.385795,0 z"
       transform="translate(241.2183,-202.63455)" />
  </g>
</svg>
